Coordinates
version=1
nRows=12
nColumns=33
inDegrees=yes

Units are S.I. units (second, meters, Newtons, ...)
Angles are in degrees.

endheader
time	ground_thorax_rot_x	ground_thorax_rot_y	ground_thorax_rot_z	ground_thorax_tx	ground_thorax_ty	ground_thorax_tz	clav_prot_r	clav_elev_r	scapula_abduction_r	scapula_elevation_r	scapula_upward_rot_r	scapula_winging_r	shoulder_elv_r	plane_of_elev_r	axial_rot_r	elbow_flexion_r	pro_sup_r	wrist_flex_r	wrist_dev_r	clav_prot_l	clav_elev_l	scapula_abduction_l	scapula_elevation_l	scapula_upward_rot_l	scapula_winging_l	shoulder_elv_l	plane_of_elev_l	axial_rot_l	elbow_flexion_l	pro_sup_l	wrist_flex_l	wrist_dev_l
      9.16000000	    -39.40507638	    -12.01025158	     10.89402920	   -101.79388155	    792.06970413	      6.21293869	      8.56831380	    -45.00000000	     35.40436188	    -45.00000000	    -37.06451365	    -90.98691006	  -4974.81163128	     28.54896283	     84.16120149	    729.22960116	     18.83487971	     16.99946389	     11.04696739	     18.65714462	     40.21825053	    -41.14368473	    -45.00000000	    -45.00000000	   5477.08986541	  -5692.34278335	     23.47081127	    -28.47617411	   1086.35535556	     22.04182815	     11.06388056	    -19.52474635
      9.17000000	    -39.59518875	    -12.16433289	     10.90407720	   -106.58440205	    792.65292756	      5.70204287	      7.86905028	    -45.00000000	     34.75210692	    -45.00000000	    -38.98762402	    -90.80705642	  -4974.36958993	     28.75795800	     83.39085709	    729.38157133	     19.52843452	     17.11936042	     10.86609649	     17.82802521	     40.24271474	    -40.84092709	    -45.00000000	    -45.00000000	   5477.74609663	  -5692.58179502	     23.75084740	    -28.62194379	   1086.22638381	     21.84923697	     11.35019724	    -19.57330428
      9.18000000	    -39.69823845	    -12.40989773	     11.04883792	   -111.50583599	    793.35086794	      5.16217357	      8.12575221	    -45.00000000	     34.32628372	    -45.00000000	    -39.89538282	    -91.16035727	  -4974.25083878	     28.81551045	     84.21891268	    729.49150224	     20.36677707	     17.16433213	     10.60852427	     17.87725697	     40.13817922	    -40.49807424	    -45.00000000	    -45.00000000	   5477.93809995	  -5692.47905669	     23.43421797	    -29.38886653	   1086.21358162	     21.65437118	     11.39829695	    -19.58648794
      9.19000000	    -39.81037857	    -12.51707764	     11.06105744	   -116.53900355	    794.16465079	      4.60142898	      8.37038419	    -45.00000000	     34.09240693	    -45.00000000	    -40.41528553	    -91.59733281	  -4974.25439261	     28.75743254	     85.25232309	    729.63127117	     21.18961497	     17.21394025	     10.42909041	     17.90178510	     40.07287423	    -40.19171195	    -45.00000000	    -45.00000000	   5478.05884869	  -5692.32358055	     23.08423477	    -30.48388612	   1086.29788658	     21.41808604	     11.38060764	    -19.62720615
      9.20000000	    -40.00583503	    -12.71242592	     11.09605782	   -121.66995677	    795.09853717	      4.02586949	      8.09564451	    -45.00000000	     33.63542699	    -45.00000000	    -42.16287553	    -91.46090963	  -4973.78244370	     28.84067028	     84.24944142	    729.84877320	     21.92761953	     17.41116692	     10.55023965	     17.43779949	     40.09636636	    -39.91016257	    -45.00000000	    -45.00000000	   5478.56742570	  -5692.38067501	     23.01623661	    -30.89658802	   1086.30060651	     20.98895840	     11.43189574	    -19.66764978
      9.21000000	    -40.13203719	    -12.83089239	     11.04832543	   -126.87389206	    796.14958808	      3.44043503	      8.23683493	    -45.00000000	     33.37926784	    -45.00000000	    -42.90064299	    -91.84917383	  -4973.69991400	     28.91204907	     85.35670276	    730.02568714	     22.75537034	     17.44528451	     10.17920531	     17.47348654	     40.07277856	    -39.45783862	    -45.00000000	    -45.00000000	   5478.84564037	  -5692.20731673	     22.87637945	    -31.84455345	   1086.35789965	     20.73677683	     11.57125154	    -19.72952428
      9.22000000	    -40.19338290	    -12.97209067	     11.18371643	   -132.13708443	    797.32484524	      2.84740213	      8.67548742	    -45.00000000	     33.19056795	    -45.00000000	    -42.96984510	    -92.60000840	  -4973.81876435	     28.80001845	     87.13705598	    730.16118068	     23.62626946	     17.48170696	     10.09123410	     17.66711019	     39.71675564	    -39.26180620	    -45.00000000	    -45.00000000	   5478.82851341	  -5692.01180736	     22.21309334	    -32.97587437	   1086.46343866	     20.58660607	     11.48777726	    -19.76949886
      9.23000000	    -40.43162136	    -13.00230789	     11.00838082	   -137.44030666	    798.63588432	      2.24857387	      8.35958197	    -45.00000000	     32.82351302	    -45.00000000	    -44.84924471	    -92.32447166	  -4973.27880116	     28.91871831	     85.29850104	    730.38097050	     24.34395201	     17.68218169	     10.17025308	     17.17345755	     39.96812977	    -38.99804667	    -45.00000000	    -45.00000000	   5479.43763411	  -5692.09604968	     22.29308901	    -33.44213373	   1086.43192456	     20.19096179	     11.55968529	    -19.80407505
      9.24000000	    -40.53808682	    -13.03146962	     11.01680108	   -142.75763451	    800.08122037	      1.64571311	      8.64027759	    -45.00000000	     32.58448674	    -45.00000000	    -45.00000000	    -93.07711098	  -4973.33205837	     28.95166697	     87.27213686	    730.64635665	     25.28676768	     17.66878125	      9.72004642	     17.28727931	     39.66777219	    -38.76635112	    -45.00000000	    -45.00000000	   5479.54661804	  -5691.82839037	     21.85590320	    -34.72185186	   1086.54111538	     20.13258160	     11.66999163	    -19.87721638
      9.25000000	    -40.65181095	    -13.04339137	     10.94143322	   -148.07037133	    801.67343875	      1.04088301	      8.82839863	    -45.00000000	     32.51457540	    -45.00000000	    -45.00000000	    -93.58837802	  -4973.42986073	     28.77829859	     88.50320791	    730.73820151	     26.19972421	     17.74264032	      9.68112775	     17.28469521	     39.49589566	    -38.59707497	    -45.00000000	    -45.00000000	   5479.87759448	  -5691.80600499	     21.52365785	    -35.88968367	   1086.67591635	     20.08633748	     11.45955230	    -19.87779273
      9.26000000	    -40.73947324	    -12.88640921	     10.64621300	   -153.35339468	    803.41710002	      0.43805129	      8.82580877	    -45.00000000	     32.44327933	    -45.00000000	    -45.00000000	    -93.97398859	  -4973.28079798	     28.64640032	     88.80699011	    730.98563419	     27.10340410	     17.86321553	      9.55259328	     17.07497148	     39.59704499	    -38.37016937	    -45.00000000	    -45.00000000	   5480.14876058	  -5691.82822977	     21.46045433	    -36.85849456	   1086.70692570	     20.09973678	     11.43225303	    -19.90951344
      9.27000000	    -40.86725057	    -12.52674506	      9.99489842	   -158.58725329	    805.31552490	     -0.15800444	      8.71643664	    -45.00000000	     32.66395543	    -45.00000000	    -45.00000000	    -93.94152536	  -4973.02154001	     28.41806104	     87.67501600	    731.21417513	     28.26578994	     18.08438647	      9.71409410	     16.85744873	     39.55304562	    -38.09640196	    -45.00000000	    -45.00000000	   5480.27854617	  -5691.74200554	     21.50349284	    -36.27852447	   1086.78093260	     19.98475229	     11.62439542	    -20.03246510
